<svg width="360" height="128" viewBox="0 0 360 128" fill="none" xmlns="http://www.w3.org/2000/svg">
<mask id="path-1-inside-1" fill="white">
<path fill-rule="evenodd" clip-rule="evenodd" d="M121 3.99997H136V12L181 12V27L136 27V81.5L136.314 98.8801L136 99L60.7457 127.688L54 113L121 87.2622V27L0 27V12L121 12V3.99997Z"/>
</mask>
<path fill-rule="evenodd" clip-rule="evenodd" d="M121 3.99997H136V12L181 12V27L136 27V81.5L136.314 98.8801L136 99L60.7457 127.688L54 113L121 87.2622V27L0 27V12L121 12V3.99997Z" fill="#6CFFDC"/>
<path d="M136 3.99997H138V1.99997H136V3.99997ZM121 3.99997V1.99997H119V3.99997H121ZM136 12H134V14L136 14L136 12ZM181 12H183V10L181 10L181 12ZM181 27L181 29L183 29V27H181ZM136 27L136 25L134 25V27H136ZM136 81.5H134V81.5181L134 81.5361L136 81.5ZM136.314 98.8801L137.027 100.749L138.339 100.248L138.314 98.844L136.314 98.8801ZM136 99L136.712 100.869L136.713 100.868L136 99ZM60.7457 127.688L58.9283 128.523L59.7094 130.223L61.4582 129.557L60.7457 127.688ZM54 113L53.2828 111.133L51.2928 111.897L52.1825 113.835L54 113ZM121 87.2622L121.717 89.1292L123 88.6364V87.2622H121ZM121 27H123V25L121 25L121 27ZM0 27H-2V29L-9.45793e-08 29L0 27ZM0 12L9.45793e-08 9.99999L-2 9.99999L-2 12H0ZM121 12L121 14L123 14V12H121ZM136 1.99997H121V5.99997H136V1.99997ZM138 12V3.99997H134V12H138ZM181 10L136 10L136 14L181 14L181 10ZM183 27V12H179V27H183ZM136 29L181 29L181 25L136 25L136 29ZM138 81.5V27H134V81.5H138ZM134 81.5361L134.314 98.9163L138.314 98.844L138 81.4639L134 81.5361ZM135.601 97.0116L135.287 97.1315L136.713 100.868L137.027 100.749L135.601 97.0116ZM135.288 97.1312L60.0333 125.819L61.4582 129.557L136.712 100.869L135.288 97.1312ZM62.5632 126.853L55.8175 112.165L52.1825 113.835L58.9283 128.523L62.5632 126.853ZM54.7172 114.867L121.717 89.1292L120.283 85.3952L53.2828 111.133L54.7172 114.867ZM119 27V87.2622H123V27H119ZM-9.45793e-08 29L121 29L121 25L9.45793e-08 25L-9.45793e-08 29ZM-2 12V27H2V12H-2ZM121 10L9.45793e-08 9.99999L-9.45793e-08 14L121 14L121 10ZM119 3.99997V12H123V3.99997H119Z" fill="#784ADA" mask="url(#path-1-inside-1)"/>
<path d="M144 114L144 127L0.999999 127L1 114L144 114Z" fill="#6CFFDC" stroke="#784ADA" stroke-width="2"/>
<path d="M85.9761 103L88.9172 110.702L50.9412 125.204L48 117.502L85.9761 103Z" fill="#6CFFDC"/>
<path d="M96.9761 103L99.9172 110.702L61.9412 125.204L59 117.502L96.9761 103Z" fill="#6CFFDC"/>
<circle cx="128.5" cy="18.5" r="18.5" fill="#784ADA"/>
<circle cx="128.5" cy="18.5" r="16.5" fill="#EC77FF"/>
<circle cx="128.5" cy="18.5" r="7.5" fill="#784ADA"/>
<mask id="path-9-outside-2" maskUnits="userSpaceOnUse" x="151.75" y="23.5" width="209" height="73" fill="black">
<rect fill="white" x="151.75" y="23.5" width="209" height="73"/>
<path d="M185.786 93C185.464 92.3848 185.2 91.623 184.995 90.7148C184.819 89.7773 184.688 88.8105 184.6 87.8145C183.779 88.6348 182.856 89.4111 181.831 90.1436C180.835 90.876 179.722 91.5205 178.491 92.0771C177.29 92.6338 176.001 93.0732 174.624 93.3955C173.247 93.7178 171.782 93.8789 170.229 93.8789C167.71 93.8789 165.425 93.5127 163.374 92.7803C161.353 92.0479 159.624 91.0664 158.188 89.8359C156.782 88.5762 155.684 87.0967 154.893 85.3975C154.131 83.6689 153.75 81.8086 153.75 79.8164C153.75 77.209 154.263 74.9238 155.288 72.9609C156.343 70.998 157.822 69.3721 159.727 68.083C161.631 66.7646 163.916 65.7832 166.582 65.1387C169.277 64.4941 172.28 64.1719 175.591 64.1719H184.468V60.4365C184.468 59.001 184.204 57.7119 183.677 56.5693C183.149 55.4268 182.402 54.46 181.436 53.6689C180.469 52.8486 179.282 52.2188 177.876 51.7793C176.499 51.3398 174.946 51.1201 173.218 51.1201C171.606 51.1201 170.156 51.3252 168.867 51.7354C167.607 52.1455 166.538 52.6875 165.659 53.3613C164.78 54.0352 164.092 54.8408 163.594 55.7783C163.125 56.6865 162.891 57.6387 162.891 58.6348H154.717C154.746 56.9062 155.186 55.207 156.035 53.5371C156.914 51.8672 158.159 50.373 159.771 49.0547C161.411 47.707 163.389 46.623 165.703 45.8027C168.047 44.9824 170.698 44.5723 173.657 44.5723C176.353 44.5723 178.857 44.9092 181.172 45.583C183.486 46.2275 185.479 47.2236 187.148 48.5713C188.848 49.8896 190.181 51.5449 191.147 53.5371C192.114 55.5293 192.598 57.8584 192.598 60.5244V82.6289C192.598 84.2109 192.744 85.8955 193.037 87.6826C193.33 89.4404 193.74 90.9785 194.268 92.2969V93H185.786ZM171.416 86.8037C172.998 86.8037 174.478 86.5986 175.854 86.1885C177.231 85.7783 178.477 85.2363 179.59 84.5625C180.732 83.8887 181.714 83.127 182.534 82.2773C183.354 81.3984 183.999 80.4902 184.468 79.5527V69.9287H176.909C172.163 69.9287 168.472 70.6318 165.835 72.0381C163.198 73.4443 161.88 75.6562 161.88 78.6738C161.88 79.8457 162.07 80.9297 162.451 81.9258C162.861 82.9219 163.462 83.7861 164.253 84.5186C165.044 85.2217 166.04 85.7783 167.241 86.1885C168.442 86.5986 169.834 86.8037 171.416 86.8037Z"/>
<path d="M240.19 80.3877C240.19 79.4209 240 78.5566 239.619 77.7949C239.238 77.0039 238.594 76.2861 237.686 75.6416C236.777 74.9971 235.576 74.4111 234.082 73.8838C232.588 73.3271 230.728 72.8291 228.501 72.3896C225.776 71.833 223.286 71.1592 221.03 70.3682C218.804 69.5771 216.885 68.6396 215.273 67.5557C213.691 66.4424 212.461 65.1533 211.582 63.6885C210.703 62.1943 210.264 60.4658 210.264 58.5029C210.264 56.5693 210.718 54.7676 211.626 53.0977C212.534 51.3984 213.809 49.9189 215.449 48.6592C217.09 47.3994 219.038 46.4033 221.294 45.6709C223.579 44.9385 226.084 44.5723 228.809 44.5723C231.738 44.5723 234.375 44.9531 236.719 45.7148C239.062 46.4766 241.055 47.5312 242.695 48.8789C244.336 50.2266 245.596 51.8086 246.475 53.625C247.383 55.4121 247.837 57.3457 247.837 59.4258H239.707C239.707 58.4004 239.443 57.4043 238.916 56.4375C238.389 55.4414 237.656 54.5625 236.719 53.8008C235.781 53.0391 234.639 52.4238 233.291 51.9551C231.973 51.4863 230.479 51.252 228.809 51.252C227.08 51.252 225.557 51.4424 224.238 51.8232C222.949 52.2041 221.865 52.7168 220.986 53.3613C220.137 54.0059 219.492 54.7529 219.053 55.6025C218.613 56.4521 218.394 57.3311 218.394 58.2393C218.394 59.1768 218.569 60.0117 218.921 60.7441C219.272 61.4766 219.873 62.1357 220.723 62.7217C221.602 63.3076 222.759 63.835 224.194 64.3037C225.659 64.7725 227.505 65.2266 229.731 65.666C232.661 66.2812 235.283 66.999 237.598 67.8193C239.912 68.6104 241.86 69.5771 243.442 70.7197C245.024 71.833 246.226 73.1367 247.046 74.6309C247.896 76.125 248.32 77.8535 248.32 79.8164C248.32 81.9258 247.837 83.8447 246.87 85.5732C245.933 87.3018 244.614 88.7812 242.915 90.0117C241.216 91.2422 239.18 92.1943 236.807 92.8682C234.434 93.542 231.841 93.8789 229.028 93.8789C225.806 93.8789 222.935 93.4541 220.415 92.6045C217.896 91.7256 215.757 90.583 213.999 89.1768C212.271 87.7412 210.938 86.0859 210 84.2109C209.092 82.3359 208.638 80.3877 208.638 78.3662H216.768C216.885 80.0361 217.324 81.4424 218.086 82.585C218.877 83.7275 219.844 84.6504 220.986 85.3535C222.158 86.0566 223.447 86.5547 224.854 86.8477C226.26 87.1406 227.651 87.2871 229.028 87.2871C232.456 87.2871 235.166 86.6572 237.158 85.3975C239.15 84.1377 240.161 82.4678 240.19 80.3877Z"/>
<path d="M276.885 70.8076L270.908 76.5645V93H262.734V25.5H270.908V66.8086L276.226 61.0957L291.826 45.4512H301.714L282.466 65.2705L304.658 93H294.331L276.885 70.8076Z"/>
<path d="M317.974 45.4512H342.275V85.9688H357.788V93H317.974V85.9688H334.146V52.5264H317.974V45.4512ZM333.091 32.9707C333.091 31.623 333.486 30.4951 334.277 29.5869C335.098 28.6494 336.328 28.1807 337.969 28.1807C339.58 28.1807 340.796 28.6494 341.616 29.5869C342.437 30.4951 342.847 31.623 342.847 32.9707C342.847 34.2891 342.437 35.3877 341.616 36.2666C340.796 37.1455 339.58 37.585 337.969 37.585C336.328 37.585 335.098 37.1455 334.277 36.2666C333.486 35.3877 333.091 34.2891 333.091 32.9707Z"/>
</mask>
<path d="M185.786 93C185.464 92.3848 185.2 91.623 184.995 90.7148C184.819 89.7773 184.688 88.8105 184.6 87.8145C183.779 88.6348 182.856 89.4111 181.831 90.1436C180.835 90.876 179.722 91.5205 178.491 92.0771C177.29 92.6338 176.001 93.0732 174.624 93.3955C173.247 93.7178 171.782 93.8789 170.229 93.8789C167.71 93.8789 165.425 93.5127 163.374 92.7803C161.353 92.0479 159.624 91.0664 158.188 89.8359C156.782 88.5762 155.684 87.0967 154.893 85.3975C154.131 83.6689 153.75 81.8086 153.75 79.8164C153.75 77.209 154.263 74.9238 155.288 72.9609C156.343 70.998 157.822 69.3721 159.727 68.083C161.631 66.7646 163.916 65.7832 166.582 65.1387C169.277 64.4941 172.28 64.1719 175.591 64.1719H184.468V60.4365C184.468 59.001 184.204 57.7119 183.677 56.5693C183.149 55.4268 182.402 54.46 181.436 53.6689C180.469 52.8486 179.282 52.2188 177.876 51.7793C176.499 51.3398 174.946 51.1201 173.218 51.1201C171.606 51.1201 170.156 51.3252 168.867 51.7354C167.607 52.1455 166.538 52.6875 165.659 53.3613C164.78 54.0352 164.092 54.8408 163.594 55.7783C163.125 56.6865 162.891 57.6387 162.891 58.6348H154.717C154.746 56.9062 155.186 55.207 156.035 53.5371C156.914 51.8672 158.159 50.373 159.771 49.0547C161.411 47.707 163.389 46.623 165.703 45.8027C168.047 44.9824 170.698 44.5723 173.657 44.5723C176.353 44.5723 178.857 44.9092 181.172 45.583C183.486 46.2275 185.479 47.2236 187.148 48.5713C188.848 49.8896 190.181 51.5449 191.147 53.5371C192.114 55.5293 192.598 57.8584 192.598 60.5244V82.6289C192.598 84.2109 192.744 85.8955 193.037 87.6826C193.33 89.4404 193.74 90.9785 194.268 92.2969V93H185.786ZM171.416 86.8037C172.998 86.8037 174.478 86.5986 175.854 86.1885C177.231 85.7783 178.477 85.2363 179.59 84.5625C180.732 83.8887 181.714 83.127 182.534 82.2773C183.354 81.3984 183.999 80.4902 184.468 79.5527V69.9287H176.909C172.163 69.9287 168.472 70.6318 165.835 72.0381C163.198 73.4443 161.88 75.6562 161.88 78.6738C161.88 79.8457 162.07 80.9297 162.451 81.9258C162.861 82.9219 163.462 83.7861 164.253 84.5186C165.044 85.2217 166.04 85.7783 167.241 86.1885C168.442 86.5986 169.834 86.8037 171.416 86.8037Z" fill="#784ADA"/>
<path d="M240.19 80.3877C240.19 79.4209 240 78.5566 239.619 77.7949C239.238 77.0039 238.594 76.2861 237.686 75.6416C236.777 74.9971 235.576 74.4111 234.082 73.8838C232.588 73.3271 230.728 72.8291 228.501 72.3896C225.776 71.833 223.286 71.1592 221.03 70.3682C218.804 69.5771 216.885 68.6396 215.273 67.5557C213.691 66.4424 212.461 65.1533 211.582 63.6885C210.703 62.1943 210.264 60.4658 210.264 58.5029C210.264 56.5693 210.718 54.7676 211.626 53.0977C212.534 51.3984 213.809 49.9189 215.449 48.6592C217.09 47.3994 219.038 46.4033 221.294 45.6709C223.579 44.9385 226.084 44.5723 228.809 44.5723C231.738 44.5723 234.375 44.9531 236.719 45.7148C239.062 46.4766 241.055 47.5312 242.695 48.8789C244.336 50.2266 245.596 51.8086 246.475 53.625C247.383 55.4121 247.837 57.3457 247.837 59.4258H239.707C239.707 58.4004 239.443 57.4043 238.916 56.4375C238.389 55.4414 237.656 54.5625 236.719 53.8008C235.781 53.0391 234.639 52.4238 233.291 51.9551C231.973 51.4863 230.479 51.252 228.809 51.252C227.08 51.252 225.557 51.4424 224.238 51.8232C222.949 52.2041 221.865 52.7168 220.986 53.3613C220.137 54.0059 219.492 54.7529 219.053 55.6025C218.613 56.4521 218.394 57.3311 218.394 58.2393C218.394 59.1768 218.569 60.0117 218.921 60.7441C219.272 61.4766 219.873 62.1357 220.723 62.7217C221.602 63.3076 222.759 63.835 224.194 64.3037C225.659 64.7725 227.505 65.2266 229.731 65.666C232.661 66.2812 235.283 66.999 237.598 67.8193C239.912 68.6104 241.86 69.5771 243.442 70.7197C245.024 71.833 246.226 73.1367 247.046 74.6309C247.896 76.125 248.32 77.8535 248.32 79.8164C248.32 81.9258 247.837 83.8447 246.87 85.5732C245.933 87.3018 244.614 88.7812 242.915 90.0117C241.216 91.2422 239.18 92.1943 236.807 92.8682C234.434 93.542 231.841 93.8789 229.028 93.8789C225.806 93.8789 222.935 93.4541 220.415 92.6045C217.896 91.7256 215.757 90.583 213.999 89.1768C212.271 87.7412 210.938 86.0859 210 84.2109C209.092 82.3359 208.638 80.3877 208.638 78.3662H216.768C216.885 80.0361 217.324 81.4424 218.086 82.585C218.877 83.7275 219.844 84.6504 220.986 85.3535C222.158 86.0566 223.447 86.5547 224.854 86.8477C226.26 87.1406 227.651 87.2871 229.028 87.2871C232.456 87.2871 235.166 86.6572 237.158 85.3975C239.15 84.1377 240.161 82.4678 240.19 80.3877Z" fill="#784ADA"/>
<path d="M276.885 70.8076L270.908 76.5645V93H262.734V25.5H270.908V66.8086L276.226 61.0957L291.826 45.4512H301.714L282.466 65.2705L304.658 93H294.331L276.885 70.8076Z" fill="#784ADA"/>
<path d="M317.974 45.4512H342.275V85.9688H357.788V93H317.974V85.9688H334.146V52.5264H317.974V45.4512ZM333.091 32.9707C333.091 31.623 333.486 30.4951 334.277 29.5869C335.098 28.6494 336.328 28.1807 337.969 28.1807C339.58 28.1807 340.796 28.6494 341.616 29.5869C342.437 30.4951 342.847 31.623 342.847 32.9707C342.847 34.2891 342.437 35.3877 341.616 36.2666C340.796 37.1455 339.58 37.585 337.969 37.585C336.328 37.585 335.098 37.1455 334.277 36.2666C333.486 35.3877 333.091 34.2891 333.091 32.9707Z" fill="#784ADA"/>
<path d="M185.786 93C185.464 92.3848 185.2 91.623 184.995 90.7148C184.819 89.7773 184.688 88.8105 184.6 87.8145C183.779 88.6348 182.856 89.4111 181.831 90.1436C180.835 90.876 179.722 91.5205 178.491 92.0771C177.29 92.6338 176.001 93.0732 174.624 93.3955C173.247 93.7178 171.782 93.8789 170.229 93.8789C167.71 93.8789 165.425 93.5127 163.374 92.7803C161.353 92.0479 159.624 91.0664 158.188 89.8359C156.782 88.5762 155.684 87.0967 154.893 85.3975C154.131 83.6689 153.75 81.8086 153.75 79.8164C153.75 77.209 154.263 74.9238 155.288 72.9609C156.343 70.998 157.822 69.3721 159.727 68.083C161.631 66.7646 163.916 65.7832 166.582 65.1387C169.277 64.4941 172.28 64.1719 175.591 64.1719H184.468V60.4365C184.468 59.001 184.204 57.7119 183.677 56.5693C183.149 55.4268 182.402 54.46 181.436 53.6689C180.469 52.8486 179.282 52.2188 177.876 51.7793C176.499 51.3398 174.946 51.1201 173.218 51.1201C171.606 51.1201 170.156 51.3252 168.867 51.7354C167.607 52.1455 166.538 52.6875 165.659 53.3613C164.78 54.0352 164.092 54.8408 163.594 55.7783C163.125 56.6865 162.891 57.6387 162.891 58.6348H154.717C154.746 56.9062 155.186 55.207 156.035 53.5371C156.914 51.8672 158.159 50.373 159.771 49.0547C161.411 47.707 163.389 46.623 165.703 45.8027C168.047 44.9824 170.698 44.5723 173.657 44.5723C176.353 44.5723 178.857 44.9092 181.172 45.583C183.486 46.2275 185.479 47.2236 187.148 48.5713C188.848 49.8896 190.181 51.5449 191.147 53.5371C192.114 55.5293 192.598 57.8584 192.598 60.5244V82.6289C192.598 84.2109 192.744 85.8955 193.037 87.6826C193.33 89.4404 193.74 90.9785 194.268 92.2969V93H185.786ZM171.416 86.8037C172.998 86.8037 174.478 86.5986 175.854 86.1885C177.231 85.7783 178.477 85.2363 179.59 84.5625C180.732 83.8887 181.714 83.127 182.534 82.2773C183.354 81.3984 183.999 80.4902 184.468 79.5527V69.9287H176.909C172.163 69.9287 168.472 70.6318 165.835 72.0381C163.198 73.4443 161.88 75.6562 161.88 78.6738C161.88 79.8457 162.07 80.9297 162.451 81.9258C162.861 82.9219 163.462 83.7861 164.253 84.5186C165.044 85.2217 166.04 85.7783 167.241 86.1885C168.442 86.5986 169.834 86.8037 171.416 86.8037Z" stroke="white" stroke-width="4" mask="url(#path-9-outside-2)"/>
<path d="M240.19 80.3877C240.19 79.4209 240 78.5566 239.619 77.7949C239.238 77.0039 238.594 76.2861 237.686 75.6416C236.777 74.9971 235.576 74.4111 234.082 73.8838C232.588 73.3271 230.728 72.8291 228.501 72.3896C225.776 71.833 223.286 71.1592 221.03 70.3682C218.804 69.5771 216.885 68.6396 215.273 67.5557C213.691 66.4424 212.461 65.1533 211.582 63.6885C210.703 62.1943 210.264 60.4658 210.264 58.5029C210.264 56.5693 210.718 54.7676 211.626 53.0977C212.534 51.3984 213.809 49.9189 215.449 48.6592C217.09 47.3994 219.038 46.4033 221.294 45.6709C223.579 44.9385 226.084 44.5723 228.809 44.5723C231.738 44.5723 234.375 44.9531 236.719 45.7148C239.062 46.4766 241.055 47.5312 242.695 48.8789C244.336 50.2266 245.596 51.8086 246.475 53.625C247.383 55.4121 247.837 57.3457 247.837 59.4258H239.707C239.707 58.4004 239.443 57.4043 238.916 56.4375C238.389 55.4414 237.656 54.5625 236.719 53.8008C235.781 53.0391 234.639 52.4238 233.291 51.9551C231.973 51.4863 230.479 51.252 228.809 51.252C227.08 51.252 225.557 51.4424 224.238 51.8232C222.949 52.2041 221.865 52.7168 220.986 53.3613C220.137 54.0059 219.492 54.7529 219.053 55.6025C218.613 56.4521 218.394 57.3311 218.394 58.2393C218.394 59.1768 218.569 60.0117 218.921 60.7441C219.272 61.4766 219.873 62.1357 220.723 62.7217C221.602 63.3076 222.759 63.835 224.194 64.3037C225.659 64.7725 227.505 65.2266 229.731 65.666C232.661 66.2812 235.283 66.999 237.598 67.8193C239.912 68.6104 241.86 69.5771 243.442 70.7197C245.024 71.833 246.226 73.1367 247.046 74.6309C247.896 76.125 248.32 77.8535 248.32 79.8164C248.32 81.9258 247.837 83.8447 246.87 85.5732C245.933 87.3018 244.614 88.7812 242.915 90.0117C241.216 91.2422 239.18 92.1943 236.807 92.8682C234.434 93.542 231.841 93.8789 229.028 93.8789C225.806 93.8789 222.935 93.4541 220.415 92.6045C217.896 91.7256 215.757 90.583 213.999 89.1768C212.271 87.7412 210.938 86.0859 210 84.2109C209.092 82.3359 208.638 80.3877 208.638 78.3662H216.768C216.885 80.0361 217.324 81.4424 218.086 82.585C218.877 83.7275 219.844 84.6504 220.986 85.3535C222.158 86.0566 223.447 86.5547 224.854 86.8477C226.26 87.1406 227.651 87.2871 229.028 87.2871C232.456 87.2871 235.166 86.6572 237.158 85.3975C239.15 84.1377 240.161 82.4678 240.19 80.3877Z" stroke="white" stroke-width="4" mask="url(#path-9-outside-2)"/>
<path d="M276.885 70.8076L270.908 76.5645V93H262.734V25.5H270.908V66.8086L276.226 61.0957L291.826 45.4512H301.714L282.466 65.2705L304.658 93H294.331L276.885 70.8076Z" stroke="white" stroke-width="4" mask="url(#path-9-outside-2)"/>
<path d="M317.974 45.4512H342.275V85.9688H357.788V93H317.974V85.9688H334.146V52.5264H317.974V45.4512ZM333.091 32.9707C333.091 31.623 333.486 30.4951 334.277 29.5869C335.098 28.6494 336.328 28.1807 337.969 28.1807C339.58 28.1807 340.796 28.6494 341.616 29.5869C342.437 30.4951 342.847 31.623 342.847 32.9707C342.847 34.2891 342.437 35.3877 341.616 36.2666C340.796 37.1455 339.58 37.585 337.969 37.585C336.328 37.585 335.098 37.1455 334.277 36.2666C333.486 35.3877 333.091 34.2891 333.091 32.9707Z" stroke="white" stroke-width="4" mask="url(#path-9-outside-2)"/>
</svg>
