<svg width="345" height="125" viewBox="0 0 345 125" fill="none" xmlns="http://www.w3.org/2000/svg">
<mask id="path-1-inside-1" fill="white">
<path fill-rule="evenodd" clip-rule="evenodd" d="M166 7.99999V23L121 23L121 77.5L121.314 94.8801L44.5 124.5L34 120L39 109L106 83.2622V23L7.21739 23L0 15.5L7.21739 7.99998L166 7.99999Z"/>
</mask>
<path fill-rule="evenodd" clip-rule="evenodd" d="M166 7.99999V23L121 23L121 77.5L121.314 94.8801L44.5 124.5L34 120L39 109L106 83.2622V23L7.21739 23L0 15.5L7.21739 7.99998L166 7.99999Z" fill="url(#paint0_linear)"/>
<path d="M166 23L166 25L168 25V23H166ZM166 7.99999H168V5.99999L166 5.99999L166 7.99999ZM121 23L121 21L119 21L119 23L121 23ZM121 77.5L119 77.5L119 77.5181L119 77.5361L121 77.5ZM121.314 94.8801L122.034 96.7462L123.339 96.2428L123.314 94.844L121.314 94.8801ZM44.5 124.5L43.7122 126.338L44.4602 126.659L45.2196 126.366L44.5 124.5ZM34 120L32.1793 119.172L31.3335 121.033L33.2122 121.838L34 120ZM39 109L38.2828 107.133L37.5182 107.427L37.1793 108.172L39 109ZM106 83.2622L106.717 85.1292L108 84.6364V83.2622H106ZM106 23H108V21L106 21L106 23ZM7.21739 23L5.77629 24.3868L6.36638 25L7.21739 25L7.21739 23ZM0 15.5L-1.4411 14.1132L-2.77565 15.5L-1.4411 16.8868L0 15.5ZM7.21739 7.99998L7.21739 5.99998L6.36638 5.99998L5.77629 6.61318L7.21739 7.99998ZM168 23V7.99999H164V23H168ZM121 25L166 25L166 21L121 21L121 25ZM123 77.5L123 23L119 23L119 77.5L123 77.5ZM119 77.5361L119.314 94.9162L123.314 94.844L123 77.4639L119 77.5361ZM120.594 93.0141L43.7804 122.634L45.2196 126.366L122.034 96.7462L120.594 93.0141ZM45.2879 122.662L34.7879 118.162L33.2122 121.838L43.7122 126.338L45.2879 122.662ZM35.8207 120.828L40.8208 109.828L37.1793 108.172L32.1793 119.172L35.8207 120.828ZM39.7172 110.867L106.717 85.1292L105.283 81.3952L38.2828 107.133L39.7172 110.867ZM104 23V83.2622H108V23H104ZM7.21739 25L106 25L106 21L7.21739 21L7.21739 25ZM-1.4411 16.8868L5.77629 24.3868L8.65849 21.6132L1.4411 14.1132L-1.4411 16.8868ZM5.77629 6.61318L-1.4411 14.1132L1.4411 16.8868L8.6585 9.38679L5.77629 6.61318ZM166 5.99999L7.21739 5.99998L7.21739 9.99998L166 9.99999L166 5.99999Z" fill="#5F27CD" mask="url(#path-1-inside-1)"/>
<circle cx="113.5" cy="14.5" r="14.5" fill="#5F27CD"/>
<circle cx="113.5" cy="14.5" r="12.9324" fill="url(#paint1_linear)"/>
<circle cx="113.5" cy="14.5" r="5.5" fill="#5F27CD"/>
<path fill-rule="evenodd" clip-rule="evenodd" d="M116.894 15.7577C117.372 14.7515 117.363 13.5346 116.762 12.4978C116.162 11.461 115.111 10.8477 114 10.762C114.706 11.3227 115.366 12.083 115.897 12.9991C116.428 13.9152 116.759 14.8663 116.894 15.7577Z" fill="white"/>
<mask id="path-7-outside-2" maskUnits="userSpaceOnUse" x="136.75" y="19.5" width="209" height="73" fill="black">
<rect fill="white" x="136.75" y="19.5" width="209" height="73"/>
<path d="M170.786 89C170.464 88.3848 170.2 87.623 169.995 86.7148C169.819 85.7773 169.688 84.8105 169.6 83.8145C168.779 84.6348 167.856 85.4111 166.831 86.1436C165.835 86.876 164.722 87.5205 163.491 88.0771C162.29 88.6338 161.001 89.0732 159.624 89.3955C158.247 89.7178 156.782 89.8789 155.229 89.8789C152.71 89.8789 150.425 89.5127 148.374 88.7803C146.353 88.0479 144.624 87.0664 143.188 85.8359C141.782 84.5762 140.684 83.0967 139.893 81.3975C139.131 79.6689 138.75 77.8086 138.75 75.8164C138.75 73.209 139.263 70.9238 140.288 68.9609C141.343 66.998 142.822 65.3721 144.727 64.083C146.631 62.7646 148.916 61.7832 151.582 61.1387C154.277 60.4941 157.28 60.1719 160.591 60.1719H169.468V56.4365C169.468 55.001 169.204 53.7119 168.677 52.5693C168.149 51.4268 167.402 50.46 166.436 49.6689C165.469 48.8486 164.282 48.2188 162.876 47.7793C161.499 47.3398 159.946 47.1201 158.218 47.1201C156.606 47.1201 155.156 47.3252 153.867 47.7354C152.607 48.1455 151.538 48.6875 150.659 49.3613C149.78 50.0352 149.092 50.8408 148.594 51.7783C148.125 52.6865 147.891 53.6387 147.891 54.6348H139.717C139.746 52.9062 140.186 51.207 141.035 49.5371C141.914 47.8672 143.159 46.373 144.771 45.0547C146.411 43.707 148.389 42.623 150.703 41.8027C153.047 40.9824 155.698 40.5723 158.657 40.5723C161.353 40.5723 163.857 40.9092 166.172 41.583C168.486 42.2275 170.479 43.2236 172.148 44.5713C173.848 45.8896 175.181 47.5449 176.147 49.5371C177.114 51.5293 177.598 53.8584 177.598 56.5244V78.6289C177.598 80.2109 177.744 81.8955 178.037 83.6826C178.33 85.4404 178.74 86.9785 179.268 88.2969V89H170.786ZM156.416 82.8037C157.998 82.8037 159.478 82.5986 160.854 82.1885C162.231 81.7783 163.477 81.2363 164.59 80.5625C165.732 79.8887 166.714 79.127 167.534 78.2773C168.354 77.3984 168.999 76.4902 169.468 75.5527V65.9287H161.909C157.163 65.9287 153.472 66.6318 150.835 68.0381C148.198 69.4443 146.88 71.6562 146.88 74.6738C146.88 75.8457 147.07 76.9297 147.451 77.9258C147.861 78.9219 148.462 79.7861 149.253 80.5186C150.044 81.2217 151.04 81.7783 152.241 82.1885C153.442 82.5986 154.834 82.8037 156.416 82.8037Z"/>
<path d="M225.19 76.3877C225.19 75.4209 225 74.5566 224.619 73.7949C224.238 73.0039 223.594 72.2861 222.686 71.6416C221.777 70.9971 220.576 70.4111 219.082 69.8838C217.588 69.3271 215.728 68.8291 213.501 68.3896C210.776 67.833 208.286 67.1592 206.03 66.3682C203.804 65.5771 201.885 64.6396 200.273 63.5557C198.691 62.4424 197.461 61.1533 196.582 59.6885C195.703 58.1943 195.264 56.4658 195.264 54.5029C195.264 52.5693 195.718 50.7676 196.626 49.0977C197.534 47.3984 198.809 45.9189 200.449 44.6592C202.09 43.3994 204.038 42.4033 206.294 41.6709C208.579 40.9385 211.084 40.5723 213.809 40.5723C216.738 40.5723 219.375 40.9531 221.719 41.7148C224.062 42.4766 226.055 43.5312 227.695 44.8789C229.336 46.2266 230.596 47.8086 231.475 49.625C232.383 51.4121 232.837 53.3457 232.837 55.4258H224.707C224.707 54.4004 224.443 53.4043 223.916 52.4375C223.389 51.4414 222.656 50.5625 221.719 49.8008C220.781 49.0391 219.639 48.4238 218.291 47.9551C216.973 47.4863 215.479 47.252 213.809 47.252C212.08 47.252 210.557 47.4424 209.238 47.8232C207.949 48.2041 206.865 48.7168 205.986 49.3613C205.137 50.0059 204.492 50.7529 204.053 51.6025C203.613 52.4521 203.394 53.3311 203.394 54.2393C203.394 55.1768 203.569 56.0117 203.921 56.7441C204.272 57.4766 204.873 58.1357 205.723 58.7217C206.602 59.3076 207.759 59.835 209.194 60.3037C210.659 60.7725 212.505 61.2266 214.731 61.666C217.661 62.2812 220.283 62.999 222.598 63.8193C224.912 64.6104 226.86 65.5771 228.442 66.7197C230.024 67.833 231.226 69.1367 232.046 70.6309C232.896 72.125 233.32 73.8535 233.32 75.8164C233.32 77.9258 232.837 79.8447 231.87 81.5732C230.933 83.3018 229.614 84.7812 227.915 86.0117C226.216 87.2422 224.18 88.1943 221.807 88.8682C219.434 89.542 216.841 89.8789 214.028 89.8789C210.806 89.8789 207.935 89.4541 205.415 88.6045C202.896 87.7256 200.757 86.583 198.999 85.1768C197.271 83.7412 195.938 82.0859 195 80.2109C194.092 78.3359 193.638 76.3877 193.638 74.3662H201.768C201.885 76.0361 202.324 77.4424 203.086 78.585C203.877 79.7275 204.844 80.6504 205.986 81.3535C207.158 82.0566 208.447 82.5547 209.854 82.8477C211.26 83.1406 212.651 83.2871 214.028 83.2871C217.456 83.2871 220.166 82.6572 222.158 81.3975C224.15 80.1377 225.161 78.4678 225.19 76.3877Z"/>
<path d="M261.885 66.8076L255.908 72.5645V89H247.734V21.5H255.908V62.8086L261.226 57.0957L276.826 41.4512H286.714L267.466 61.2705L289.658 89H279.331L261.885 66.8076Z"/>
<path d="M302.974 41.4512H327.275V81.9688H342.788V89H302.974V81.9688H319.146V48.5264H302.974V41.4512ZM318.091 28.9707C318.091 27.623 318.486 26.4951 319.277 25.5869C320.098 24.6494 321.328 24.1807 322.969 24.1807C324.58 24.1807 325.796 24.6494 326.616 25.5869C327.437 26.4951 327.847 27.623 327.847 28.9707C327.847 30.2891 327.437 31.3877 326.616 32.2666C325.796 33.1455 324.58 33.585 322.969 33.585C321.328 33.585 320.098 33.1455 319.277 32.2666C318.486 31.3877 318.091 30.2891 318.091 28.9707Z"/>
</mask>
<path d="M170.786 89C170.464 88.3848 170.2 87.623 169.995 86.7148C169.819 85.7773 169.688 84.8105 169.6 83.8145C168.779 84.6348 167.856 85.4111 166.831 86.1436C165.835 86.876 164.722 87.5205 163.491 88.0771C162.29 88.6338 161.001 89.0732 159.624 89.3955C158.247 89.7178 156.782 89.8789 155.229 89.8789C152.71 89.8789 150.425 89.5127 148.374 88.7803C146.353 88.0479 144.624 87.0664 143.188 85.8359C141.782 84.5762 140.684 83.0967 139.893 81.3975C139.131 79.6689 138.75 77.8086 138.75 75.8164C138.75 73.209 139.263 70.9238 140.288 68.9609C141.343 66.998 142.822 65.3721 144.727 64.083C146.631 62.7646 148.916 61.7832 151.582 61.1387C154.277 60.4941 157.28 60.1719 160.591 60.1719H169.468V56.4365C169.468 55.001 169.204 53.7119 168.677 52.5693C168.149 51.4268 167.402 50.46 166.436 49.6689C165.469 48.8486 164.282 48.2188 162.876 47.7793C161.499 47.3398 159.946 47.1201 158.218 47.1201C156.606 47.1201 155.156 47.3252 153.867 47.7354C152.607 48.1455 151.538 48.6875 150.659 49.3613C149.78 50.0352 149.092 50.8408 148.594 51.7783C148.125 52.6865 147.891 53.6387 147.891 54.6348H139.717C139.746 52.9062 140.186 51.207 141.035 49.5371C141.914 47.8672 143.159 46.373 144.771 45.0547C146.411 43.707 148.389 42.623 150.703 41.8027C153.047 40.9824 155.698 40.5723 158.657 40.5723C161.353 40.5723 163.857 40.9092 166.172 41.583C168.486 42.2275 170.479 43.2236 172.148 44.5713C173.848 45.8896 175.181 47.5449 176.147 49.5371C177.114 51.5293 177.598 53.8584 177.598 56.5244V78.6289C177.598 80.2109 177.744 81.8955 178.037 83.6826C178.33 85.4404 178.74 86.9785 179.268 88.2969V89H170.786ZM156.416 82.8037C157.998 82.8037 159.478 82.5986 160.854 82.1885C162.231 81.7783 163.477 81.2363 164.59 80.5625C165.732 79.8887 166.714 79.127 167.534 78.2773C168.354 77.3984 168.999 76.4902 169.468 75.5527V65.9287H161.909C157.163 65.9287 153.472 66.6318 150.835 68.0381C148.198 69.4443 146.88 71.6562 146.88 74.6738C146.88 75.8457 147.07 76.9297 147.451 77.9258C147.861 78.9219 148.462 79.7861 149.253 80.5186C150.044 81.2217 151.04 81.7783 152.241 82.1885C153.442 82.5986 154.834 82.8037 156.416 82.8037Z" fill="url(#paint2_linear)"/>
<path d="M225.19 76.3877C225.19 75.4209 225 74.5566 224.619 73.7949C224.238 73.0039 223.594 72.2861 222.686 71.6416C221.777 70.9971 220.576 70.4111 219.082 69.8838C217.588 69.3271 215.728 68.8291 213.501 68.3896C210.776 67.833 208.286 67.1592 206.03 66.3682C203.804 65.5771 201.885 64.6396 200.273 63.5557C198.691 62.4424 197.461 61.1533 196.582 59.6885C195.703 58.1943 195.264 56.4658 195.264 54.5029C195.264 52.5693 195.718 50.7676 196.626 49.0977C197.534 47.3984 198.809 45.9189 200.449 44.6592C202.09 43.3994 204.038 42.4033 206.294 41.6709C208.579 40.9385 211.084 40.5723 213.809 40.5723C216.738 40.5723 219.375 40.9531 221.719 41.7148C224.062 42.4766 226.055 43.5312 227.695 44.8789C229.336 46.2266 230.596 47.8086 231.475 49.625C232.383 51.4121 232.837 53.3457 232.837 55.4258H224.707C224.707 54.4004 224.443 53.4043 223.916 52.4375C223.389 51.4414 222.656 50.5625 221.719 49.8008C220.781 49.0391 219.639 48.4238 218.291 47.9551C216.973 47.4863 215.479 47.252 213.809 47.252C212.08 47.252 210.557 47.4424 209.238 47.8232C207.949 48.2041 206.865 48.7168 205.986 49.3613C205.137 50.0059 204.492 50.7529 204.053 51.6025C203.613 52.4521 203.394 53.3311 203.394 54.2393C203.394 55.1768 203.569 56.0117 203.921 56.7441C204.272 57.4766 204.873 58.1357 205.723 58.7217C206.602 59.3076 207.759 59.835 209.194 60.3037C210.659 60.7725 212.505 61.2266 214.731 61.666C217.661 62.2812 220.283 62.999 222.598 63.8193C224.912 64.6104 226.86 65.5771 228.442 66.7197C230.024 67.833 231.226 69.1367 232.046 70.6309C232.896 72.125 233.32 73.8535 233.32 75.8164C233.32 77.9258 232.837 79.8447 231.87 81.5732C230.933 83.3018 229.614 84.7812 227.915 86.0117C226.216 87.2422 224.18 88.1943 221.807 88.8682C219.434 89.542 216.841 89.8789 214.028 89.8789C210.806 89.8789 207.935 89.4541 205.415 88.6045C202.896 87.7256 200.757 86.583 198.999 85.1768C197.271 83.7412 195.938 82.0859 195 80.2109C194.092 78.3359 193.638 76.3877 193.638 74.3662H201.768C201.885 76.0361 202.324 77.4424 203.086 78.585C203.877 79.7275 204.844 80.6504 205.986 81.3535C207.158 82.0566 208.447 82.5547 209.854 82.8477C211.26 83.1406 212.651 83.2871 214.028 83.2871C217.456 83.2871 220.166 82.6572 222.158 81.3975C224.15 80.1377 225.161 78.4678 225.19 76.3877Z" fill="url(#paint3_linear)"/>
<path d="M261.885 66.8076L255.908 72.5645V89H247.734V21.5H255.908V62.8086L261.226 57.0957L276.826 41.4512H286.714L267.466 61.2705L289.658 89H279.331L261.885 66.8076Z" fill="url(#paint4_linear)"/>
<path d="M302.974 41.4512H327.275V81.9688H342.788V89H302.974V81.9688H319.146V48.5264H302.974V41.4512ZM318.091 28.9707C318.091 27.623 318.486 26.4951 319.277 25.5869C320.098 24.6494 321.328 24.1807 322.969 24.1807C324.58 24.1807 325.796 24.6494 326.616 25.5869C327.437 26.4951 327.847 27.623 327.847 28.9707C327.847 30.2891 327.437 31.3877 326.616 32.2666C325.796 33.1455 324.58 33.585 322.969 33.585C321.328 33.585 320.098 33.1455 319.277 32.2666C318.486 31.3877 318.091 30.2891 318.091 28.9707Z" fill="url(#paint5_linear)"/>
<path d="M170.786 89C170.464 88.3848 170.2 87.623 169.995 86.7148C169.819 85.7773 169.688 84.8105 169.6 83.8145C168.779 84.6348 167.856 85.4111 166.831 86.1436C165.835 86.876 164.722 87.5205 163.491 88.0771C162.29 88.6338 161.001 89.0732 159.624 89.3955C158.247 89.7178 156.782 89.8789 155.229 89.8789C152.71 89.8789 150.425 89.5127 148.374 88.7803C146.353 88.0479 144.624 87.0664 143.188 85.8359C141.782 84.5762 140.684 83.0967 139.893 81.3975C139.131 79.6689 138.75 77.8086 138.75 75.8164C138.75 73.209 139.263 70.9238 140.288 68.9609C141.343 66.998 142.822 65.3721 144.727 64.083C146.631 62.7646 148.916 61.7832 151.582 61.1387C154.277 60.4941 157.28 60.1719 160.591 60.1719H169.468V56.4365C169.468 55.001 169.204 53.7119 168.677 52.5693C168.149 51.4268 167.402 50.46 166.436 49.6689C165.469 48.8486 164.282 48.2188 162.876 47.7793C161.499 47.3398 159.946 47.1201 158.218 47.1201C156.606 47.1201 155.156 47.3252 153.867 47.7354C152.607 48.1455 151.538 48.6875 150.659 49.3613C149.78 50.0352 149.092 50.8408 148.594 51.7783C148.125 52.6865 147.891 53.6387 147.891 54.6348H139.717C139.746 52.9062 140.186 51.207 141.035 49.5371C141.914 47.8672 143.159 46.373 144.771 45.0547C146.411 43.707 148.389 42.623 150.703 41.8027C153.047 40.9824 155.698 40.5723 158.657 40.5723C161.353 40.5723 163.857 40.9092 166.172 41.583C168.486 42.2275 170.479 43.2236 172.148 44.5713C173.848 45.8896 175.181 47.5449 176.147 49.5371C177.114 51.5293 177.598 53.8584 177.598 56.5244V78.6289C177.598 80.2109 177.744 81.8955 178.037 83.6826C178.33 85.4404 178.74 86.9785 179.268 88.2969V89H170.786ZM156.416 82.8037C157.998 82.8037 159.478 82.5986 160.854 82.1885C162.231 81.7783 163.477 81.2363 164.59 80.5625C165.732 79.8887 166.714 79.127 167.534 78.2773C168.354 77.3984 168.999 76.4902 169.468 75.5527V65.9287H161.909C157.163 65.9287 153.472 66.6318 150.835 68.0381C148.198 69.4443 146.88 71.6562 146.88 74.6738C146.88 75.8457 147.07 76.9297 147.451 77.9258C147.861 78.9219 148.462 79.7861 149.253 80.5186C150.044 81.2217 151.04 81.7783 152.241 82.1885C153.442 82.5986 154.834 82.8037 156.416 82.8037Z" stroke="white" stroke-width="4" mask="url(#path-7-outside-2)"/>
<path d="M225.19 76.3877C225.19 75.4209 225 74.5566 224.619 73.7949C224.238 73.0039 223.594 72.2861 222.686 71.6416C221.777 70.9971 220.576 70.4111 219.082 69.8838C217.588 69.3271 215.728 68.8291 213.501 68.3896C210.776 67.833 208.286 67.1592 206.03 66.3682C203.804 65.5771 201.885 64.6396 200.273 63.5557C198.691 62.4424 197.461 61.1533 196.582 59.6885C195.703 58.1943 195.264 56.4658 195.264 54.5029C195.264 52.5693 195.718 50.7676 196.626 49.0977C197.534 47.3984 198.809 45.9189 200.449 44.6592C202.09 43.3994 204.038 42.4033 206.294 41.6709C208.579 40.9385 211.084 40.5723 213.809 40.5723C216.738 40.5723 219.375 40.9531 221.719 41.7148C224.062 42.4766 226.055 43.5312 227.695 44.8789C229.336 46.2266 230.596 47.8086 231.475 49.625C232.383 51.4121 232.837 53.3457 232.837 55.4258H224.707C224.707 54.4004 224.443 53.4043 223.916 52.4375C223.389 51.4414 222.656 50.5625 221.719 49.8008C220.781 49.0391 219.639 48.4238 218.291 47.9551C216.973 47.4863 215.479 47.252 213.809 47.252C212.08 47.252 210.557 47.4424 209.238 47.8232C207.949 48.2041 206.865 48.7168 205.986 49.3613C205.137 50.0059 204.492 50.7529 204.053 51.6025C203.613 52.4521 203.394 53.3311 203.394 54.2393C203.394 55.1768 203.569 56.0117 203.921 56.7441C204.272 57.4766 204.873 58.1357 205.723 58.7217C206.602 59.3076 207.759 59.835 209.194 60.3037C210.659 60.7725 212.505 61.2266 214.731 61.666C217.661 62.2812 220.283 62.999 222.598 63.8193C224.912 64.6104 226.86 65.5771 228.442 66.7197C230.024 67.833 231.226 69.1367 232.046 70.6309C232.896 72.125 233.32 73.8535 233.32 75.8164C233.32 77.9258 232.837 79.8447 231.87 81.5732C230.933 83.3018 229.614 84.7812 227.915 86.0117C226.216 87.2422 224.18 88.1943 221.807 88.8682C219.434 89.542 216.841 89.8789 214.028 89.8789C210.806 89.8789 207.935 89.4541 205.415 88.6045C202.896 87.7256 200.757 86.583 198.999 85.1768C197.271 83.7412 195.938 82.0859 195 80.2109C194.092 78.3359 193.638 76.3877 193.638 74.3662H201.768C201.885 76.0361 202.324 77.4424 203.086 78.585C203.877 79.7275 204.844 80.6504 205.986 81.3535C207.158 82.0566 208.447 82.5547 209.854 82.8477C211.26 83.1406 212.651 83.2871 214.028 83.2871C217.456 83.2871 220.166 82.6572 222.158 81.3975C224.15 80.1377 225.161 78.4678 225.19 76.3877Z" stroke="white" stroke-width="4" mask="url(#path-7-outside-2)"/>
<path d="M261.885 66.8076L255.908 72.5645V89H247.734V21.5H255.908V62.8086L261.226 57.0957L276.826 41.4512H286.714L267.466 61.2705L289.658 89H279.331L261.885 66.8076Z" stroke="white" stroke-width="4" mask="url(#path-7-outside-2)"/>
<path d="M302.974 41.4512H327.275V81.9688H342.788V89H302.974V81.9688H319.146V48.5264H302.974V41.4512ZM318.091 28.9707C318.091 27.623 318.486 26.4951 319.277 25.5869C320.098 24.6494 321.328 24.1807 322.969 24.1807C324.58 24.1807 325.796 24.6494 326.616 25.5869C327.437 26.4951 327.847 27.623 327.847 28.9707C327.847 30.2891 327.437 31.3877 326.616 32.2666C325.796 33.1455 324.58 33.585 322.969 33.585C321.328 33.585 320.098 33.1455 319.277 32.2666C318.486 31.3877 318.091 30.2891 318.091 28.9707Z" stroke="white" stroke-width="4" mask="url(#path-7-outside-2)"/>
<defs>
<linearGradient id="paint0_linear" x1="171.75" y1="56.4601" x2="-10.6648" y2="51.4366" gradientUnits="userSpaceOnUse">
<stop stop-color="#00D2D3"/>
<stop offset="1" stop-color="#6CFFDC"/>
</linearGradient>
<linearGradient id="paint1_linear" x1="101" y1="14" x2="126" y2="14" gradientUnits="userSpaceOnUse">
<stop stop-color="#00D2D3"/>
<stop offset="1" stop-color="#6CFFDC"/>
</linearGradient>
<linearGradient id="paint2_linear" x1="141" y1="62" x2="343" y2="60" gradientUnits="userSpaceOnUse">
<stop stop-color="#341F97"/>
<stop offset="1" stop-color="#5F27CD"/>
</linearGradient>
<linearGradient id="paint3_linear" x1="141" y1="62" x2="343" y2="60" gradientUnits="userSpaceOnUse">
<stop stop-color="#341F97"/>
<stop offset="1" stop-color="#5F27CD"/>
</linearGradient>
<linearGradient id="paint4_linear" x1="141" y1="62" x2="343" y2="60" gradientUnits="userSpaceOnUse">
<stop stop-color="#341F97"/>
<stop offset="1" stop-color="#5F27CD"/>
</linearGradient>
<linearGradient id="paint5_linear" x1="141" y1="62" x2="343" y2="60" gradientUnits="userSpaceOnUse">
<stop stop-color="#341F97"/>
<stop offset="1" stop-color="#5F27CD"/>
</linearGradient>
</defs>
</svg>
